<svg xmlns="http://www.w3.org/2000/svg" viewBox="0 0 48 48"><defs><linearGradient id="g" x1="0" y1="0" x2="1" y2="0"><stop offset="0" stop-color="#4F7DFF"/><stop offset="1" stop-color="#8B5CFF"/></linearGradient></defs><rect width="48" height="48" rx="11" fill="#0E1543"/><g transform="rotate(-8 22 30)"><rect x="6" y="21" width="32" height="20" rx="3" fill="#141B52" stroke="url(#g)" stroke-width="1.6"/><path d="M11 28.5h22M11 33.5h15" stroke="#C3CCF0" stroke-opacity=".75" stroke-width="1.6" stroke-linecap="round"/><rect x="6" y="16.5" width="32" height="5" rx="1" fill="url(#g)"/><path d="M9 16.5h4l-3 5H6zM17 16.5h4l-3 5h-4zM25 16.5h4l-3 5h-4zM33 16.5h4l-3 5h-4z" fill="#0E1543"/><g transform="rotate(-18 6 16.5)"><rect x="6" y="11" width="32" height="5" rx="1" fill="url(#g)"/><path d="M9 11h4l-3 5H6zM17 11h4l-3 5h-4zM25 11h4l-3 5h-4zM33 11h4l-3 5h-4z" fill="#0E1543"/></g></g><path d="M40 3.5l1.3 4.2 4.2 1.3-4.2 1.3-1.3 4.2-1.3-4.2-4.2-1.3 4.2-1.3z" fill="#F5C76B"/></svg>
